HIERARCHY
ROOT Root
{
  OFFSET 0.0 0.0 0.0
  CHANNELS 6 Xposition Yposition Zposition Zrotation Yrotation Xrotation
  JOINT Hips
  {
    OFFSET 0.0 100.0 0.0
    CHANNELS 6 Xposition Yposition Zposition Zrotation Yrotation Xrotation
    JOINT Spine1
    {
      OFFSET 5.003913 -0.037094 -0.013727
      CHANNELS 3 Zrotation Yrotation Xrotation
      JOINT Spine2
      {
        OFFSET 7.125363 -1e-06 0.0
        CHANNELS 3 Zrotation Yrotation Xrotation
        JOINT Chest
        {
          OFFSET 7.594027 1e-06 0.0
          CHANNELS 3 Zrotation Yrotation Xrotation
          JOINT Neck1
          {
            OFFSET 26.313086 -0.460272 -0.181672
            CHANNELS 3 Zrotation Yrotation Xrotation
            JOINT Neck2
            {
              OFFSET 8.045911 0.0 0.0
              CHANNELS 3 Zrotation Yrotation Xrotation
              JOINT Head
              {
                OFFSET 6.432774 0.0 0.0
                CHANNELS 3 Zrotation Yrotation Xrotation
                JOINT HeadEnd
                {
                  OFFSET 16.169773 0.06451 0.00362
                  CHANNELS 3 Zrotation Yrotation Xrotation
                }
                JOINT Jaw
                {
                  OFFSET 0.108741 3.12938 0.002639
                  CHANNELS 3 Zrotation Yrotation Xrotation
                }
                JOINT LeftEye
                {
                  OFFSET 4.45173 8.166359 3.206392
                  CHANNELS 3 Zrotation Yrotation Xrotation
                }
                JOINT RightEye
                {
                  OFFSET 4.436895 8.135758 -3.222429
                  CHANNELS 3 Zrotation Yrotation Xrotation
                }
              }
            }
          }
          JOINT LeftShoulder
          {
            OFFSET 23.218927 5.195579 1.621656
            CHANNELS 3 Zrotation Yrotation Xrotation
            JOINT LeftArm
            {
              OFFSET 15.902118 2e-06 -2e-06
              CHANNELS 3 Zrotation Yrotation Xrotation
              JOINT LeftForeArm
              {
                OFFSET 28.739307 0.0 -1e-06
                CHANNELS 3 Zrotation Yrotation Xrotation
                JOINT LeftHand
                {
                  OFFSET 27.093981 -4e-06 0.0
                  CHANNELS 3 Zrotation Yrotation Xrotation
                  JOINT LeftHandThumb1
                  {
                    OFFSET 2.276781 3.380274 0.83384
                    CHANNELS 3 Zrotation Yrotation Xrotation
                    JOINT LeftHandThumb2
                    {
                      OFFSET 4.705309 -1e-06 -1e-06
                      CHANNELS 3 Zrotation Yrotation Xrotation
                      JOINT LeftHandThumb3
                      {
                        OFFSET 2.798515 0.0 3e-06
                        CHANNELS 3 Zrotation Yrotation Xrotation
                        JOINT LeftHandThumbEnd
                        {
                          OFFSET 3.180793 4e-06 -4e-06
                          CHANNELS 3 Zrotation Yrotation Xrotation
                        }
                      }
                    }
                  }
                  JOINT LeftHandIndex1
                  {
                    OFFSET 3.247786 2.352677 0.137192
                    CHANNELS 3 Zrotation Yrotation Xrotation
                    JOINT LeftHandIndex2
                    {
                      OFFSET 6.367095 1e-06 0.0
                      CHANNELS 3 Zrotation Yrotation Xrotation
                      JOINT LeftHandIndex3
                      {
                        OFFSET 3.662364 0.0 0.0
                        CHANNELS 3 Zrotation Yrotation Xrotation
                        JOINT LeftHandIndex4
                        {
                          OFFSET 2.329242 4e-06 -4e-06
                          CHANNELS 3 Zrotation Yrotation Xrotation
                          JOINT LeftHandIndexEnd
                          {
                            OFFSET 2.767823 1e-06 0.0
                            CHANNELS 3 Zrotation Yrotation Xrotation
                          }
                        }
                      }
                    }
                  }
                  JOINT LeftHandMiddle1
                  {
                    OFFSET 3.163612 0.945023 -0.406112
                    CHANNELS 3 Zrotation Yrotation Xrotation
                    JOINT LeftHandMiddle2
                    {
                      OFFSET 6.276789 3e-06 0.0
                      CHANNELS 3 Zrotation Yrotation Xrotation
                      JOINT LeftHandMiddle3
                      {
                        OFFSET 4.35652 -1e-06 4e-06
                        CHANNELS 3 Zrotation Yrotation Xrotation
                        JOINT LeftHandMiddle4
                        {
                          OFFSET 2.996877 0.0 8e-06
                          CHANNELS 3 Zrotation Yrotation Xrotation
                          JOINT LeftHandMiddleEnd
                          {
                            OFFSET 2.323256 3e-06 -4e-06
                            CHANNELS 3 Zrotation Yrotation Xrotation
                          }
                        }
                      }
                    }
                  }
                  JOINT LeftHandRing1
                  {
                    OFFSET 2.882606 -0.309162 0.107445
                    CHANNELS 3 Zrotation Yrotation Xrotation
                    JOINT LeftHandRing2
                    {
                      OFFSET 6.033198 0.0 4e-06
                      CHANNELS 3 Zrotation Yrotation Xrotation
                      JOINT LeftHandRing3
                      {
                        OFFSET 4.350578 3e-06 0.0
                        CHANNELS 3 Zrotation Yrotation Xrotation
                        JOINT LeftHandRing4
                        {
                          OFFSET 2.651321 2e-06 -7e-06
                          CHANNELS 3 Zrotation Yrotation Xrotation
                          JOINT LeftHandRingEnd
                          {
                            OFFSET 1.937663 1e-06 -4e-06
                            CHANNELS 3 Zrotation Yrotation Xrotation
                          }
                        }
                      }
                    }
                  }
                  JOINT LeftHandPinky1
                  {
                    OFFSET 2.865315 -1.525436 0.575687
                    CHANNELS 3 Zrotation Yrotation Xrotation
                    JOINT LeftHandPinky2
                    {
                      OFFSET 5.54936 1e-06 -8e-06
                      CHANNELS 3 Zrotation Yrotation Xrotation
                      JOINT LeftHandPinky3
                      {
                        OFFSET 3.070974 0.0 -4e-06
                        CHANNELS 3 Zrotation Yrotation Xrotation
                        JOINT LeftHandPinky4
                        {
                          OFFSET 1.549672 1e-06 0.0
                          CHANNELS 3 Zrotation Yrotation Xrotation
                          JOINT LeftHandPinkyEnd
                          {
                            OFFSET 1.952123 0.0 0.0
                            CHANNELS 3 Zrotation Yrotation Xrotation
                          }
                        }
                      }
                    }
                  }
                }
              }
            }
          }
          JOINT RightShoulder
          {
            OFFSET 23.161716 5.296122 -1.380114
            CHANNELS 3 Zrotation Yrotation Xrotation
            JOINT RightArm
            {
              OFFSET -16.027195 -2e-06 1.1e-05
              CHANNELS 3 Zrotation Yrotation Xrotation
              JOINT RightForeArm
              {
                OFFSET -28.736639 4e-06 2e-06
                CHANNELS 3 Zrotation Yrotation Xrotation
                JOINT RightHand
                {
                  OFFSET -27.133619 6e-06 0.0
                  CHANNELS 3 Zrotation Yrotation Xrotation
                  JOINT RightHandThumb1
                  {
                    OFFSET -2.274328 -3.351035 -0.83067
                    CHANNELS 3 Zrotation Yrotation Xrotation
                    JOINT RightHandThumb2
                    {
                      OFFSET -4.703594 -3e-06 2e-06
                      CHANNELS 3 Zrotation Yrotation Xrotation
                      JOINT RightHandThumb3
                      {
                        OFFSET -2.794935 -4e-06 -3e-06
                        CHANNELS 3 Zrotation Yrotation Xrotation
                        JOINT RightHandThumbEnd
                        {
                          OFFSET -3.183852 4e-06 1e-06
                          CHANNELS 3 Zrotation Yrotation Xrotation
                        }
                      }
                    }
                  }
                  JOINT RightHandIndex1
                  {
                    OFFSET -3.253496 -2.33755 -0.127667
                    CHANNELS 3 Zrotation Yrotation Xrotation
                    JOINT RightHandIndex2
                    {
                      OFFSET -6.344434 0.0 0.0
                      CHANNELS 3 Zrotation Yrotation Xrotation
                      JOINT RightHandIndex3
                      {
                        OFFSET -3.654871 0.0 -8e-06
                        CHANNELS 3 Zrotation Yrotation Xrotation
                        JOINT RightHandIndex4
                        {
                          OFFSET -2.327586 -1e-06 0.0
                          CHANNELS 3 Zrotation Yrotation Xrotation
                          JOINT RightHandIndexEnd
                          {
                            OFFSET -2.770001 3e-06 8e-06
                            CHANNELS 3 Zrotation Yrotation Xrotation
                          }
                        }
                      }
                    }
                  }
                  JOINT RightHandMiddle1
                  {
                    OFFSET -3.168223 -0.944764 0.411762
                    CHANNELS 3 Zrotation Yrotation Xrotation
                    JOINT RightHandMiddle2
                    {
                      OFFSET -6.266691 -1e-06 -4e-06
                      CHANNELS 3 Zrotation Yrotation Xrotation
                      JOINT RightHandMiddle3
                      {
                        OFFSET -4.348901 0.0 0.0
                        CHANNELS 3 Zrotation Yrotation Xrotation
                        JOINT RightHandMiddle4
                        {
                          OFFSET -3.00024 2e-06 -4e-06
                          CHANNELS 3 Zrotation Yrotation Xrotation
                          JOINT RightHandMiddleEnd
                          {
                            OFFSET -2.321477 -4e-06 -4e-06
                            CHANNELS 3 Zrotation Yrotation Xrotation
                          }
                        }
                      }
                    }
                  }
                  JOINT RightHandRing1
                  {
                    OFFSET -2.885654 0.293261 -0.119232
                    CHANNELS 3 Zrotation Yrotation Xrotation
                    JOINT RightHandRing2
                    {
                      OFFSET -6.032835 -1e-06 -4e-06
                      CHANNELS 3 Zrotation Yrotation Xrotation
                      JOINT RightHandRing3
                      {
                        OFFSET -4.33881 0.0 -4e-06
                        CHANNELS 3 Zrotation Yrotation Xrotation
                        JOINT RightHandRing4
                        {
                          OFFSET -2.654903 -4e-06 -4e-06
                          CHANNELS 3 Zrotation Yrotation Xrotation
                          JOINT RightHandRingEnd
                          {
                            OFFSET -1.935122 0.0 4e-06
                            CHANNELS 3 Zrotation Yrotation Xrotation
                          }
                        }
                      }
                    }
                  }
                  JOINT RightHandPinky1
                  {
                    OFFSET -2.866241 1.503904 -0.60527
                    CHANNELS 3 Zrotation Yrotation Xrotation
                    JOINT RightHandPinky2
                    {
                      OFFSET -5.553177 -2e-06 0.0
                      CHANNELS 3 Zrotation Yrotation Xrotation
                      JOINT RightHandPinky3
                      {
                        OFFSET -3.062664 -1e-06 -4e-06
                        CHANNELS 3 Zrotation Yrotation Xrotation
                        JOINT RightHandPinky4
                        {
                          OFFSET -1.546529 2e-06 4e-06
                          CHANNELS 3 Zrotation Yrotation Xrotation
                          JOINT RightHandPinkyEnd
                          {
                            OFFSET -1.952341 0.0 -4e-06
                            CHANNELS 3 Zrotation Yrotation Xrotation
                          }
                        }
                      }
                    }
                  }
                }
              }
            }
          }
        }
      }
    }
    JOINT LeftLeg
    {
      OFFSET -8.443107 2.567604 10.043214
      CHANNELS 3 Zrotation Yrotation Xrotation
      JOINT LeftShin
      {
        OFFSET 43.229198 1e-06 -1e-06
        CHANNELS 3 Zrotation Yrotation Xrotation
        JOINT LeftFoot
        {
          OFFSET 42.298611 1e-06 1e-06
          CHANNELS 3 Zrotation Yrotation Xrotation
          JOINT LeftToeBase
          {
            OFFSET 14.165858 1e-06 0.0
            CHANNELS 3 Zrotation Yrotation Xrotation
            JOINT LeftToeEnd
            {
              OFFSET 6.7141 -0.234461 0.0
              CHANNELS 3 Zrotation Yrotation Xrotation
            }
          }
        }
      }
    }
    JOINT RightLeg
    {
      OFFSET -8.303923 2.592729 -10.047278
      CHANNELS 3 Zrotation Yrotation Xrotation
      JOINT RightShin
      {
        OFFSET -43.369682 0.0 1e-06
        CHANNELS 3 Zrotation Yrotation Xrotation
        JOINT RightFoot
        {
          OFFSET -42.260784 4e-06 2e-06
          CHANNELS 3 Zrotation Yrotation Xrotation
          JOINT RightToeBase
          {
            OFFSET -14.222245 -2e-06 -1e-06
            CHANNELS 3 Zrotation Yrotation Xrotation
            JOINT RightToeEnd
            {
              OFFSET -6.660062 0.232574 -2e-06
              CHANNELS 3 Zrotation Yrotation Xrotation
            }
          }
        }
      }
    }
  }
}
MOTION
Frames: 4
Frame Time: 0.03333333333333333
0.0 0.0 0.0 0.0 -0.0 0.0 0.755209 99.539658 -2.320004 89.869385 0.926123 89.991447 -0.666578 0.531603 -0.262988 -11.327781 -0.42571 -0.36624 16.309965 0.394329 -2.562417 19.570988 -2.497462 2.63756 -2.509857 -0.675932 -0.178798 -32.425049 1.399716 -1.923497 6e-06 -0.0 -0.0 0.016525 0.015332 0.02051 0.037985 0.037365 0.017645 0.03215 -0.009696 0.031713 -135.737488 -72.174019 155.48584 35.039883 -38.997158 20.013502 37.155468 0.379792 0.069382 -0.214664 -6.27192 4.781675 17.636623 -26.322721 52.411182 -19.466661 -14.395596 29.410381 -0.0 -8.774821 -3e-06 16.169577 -18.13463 6.09401 -0.609776 -1.795654 -3.889327 -4.807088 -11.046809 -2.93785 4e-06 -20.976015 -0.0 -5.019969 -25.033558 -4.031881 5e-06 2e-06 -0.0 -10.634533 -5.686971 -3.56559 10.573272 -17.922947 -3.113901 3e-06 -13.821206 0.0 -0.501776 -31.181501 -4.027015 -11.555714 -59.972622 7.206194 -13.982714 -7.1502 -2.87504 13.77273 -8.401491 -3.218242 0.347733 -34.211552 0.771654 -0.963026 -17.73337 2.621019 0.0 2e-06 0.0 -17.346416 -20.095217 -4.201783 21.757557 -1.638375 3.866427 0.0 -6.338823 -0.0 -1.697588 -22.591747 -6.194008 -0.0 -4e-06 -2e-06 49.795792 -78.372047 149.432358 37.827232 -51.2346 8.255372 36.044746 -0.067412 0.052382 1.504432 -3.648336 12.691012 22.182112 -20.375883 49.9333 -16.701817 -16.74353 28.476532 -4e-06 -12.690601 0.0 16.188148 -17.937996 2.533022 -0.105918 -1.513856 -4.275879 -5.03904 -5.612871 -2.953555 4e-06 -11.020523 -4e-06 -6.111297 -15.89533 -3.84047 -2e-06 1e-06 2e-06 -10.283371 -5.680288 -4.341839 11.028296 -11.302406 -2.372634 -1.384269 -14.238581 -6.320122 -0.625436 -26.924191 -3.8276 -4.453356 -49.95158 -3.901194 -13.708524 -7.363477 -3.720938 18.14115 -14.052737 -3.242676 6e-06 -18.787266 -3e-06 -0.429712 -8.456041 2.555504 2e-06 -3e-06 -1e-06 -15.923534 -20.094482 -5.473586 30.419214 -7.190827 1.735925 -0.0 -8.162924 -3e-06 -1.861898 -22.861469 -6.167942 -1e-06 -1e-06 -1e-06 170.572693 -4.751843 -10.839828 20.625772 0.038737 0.070567 -78.813675 2.911037 -3.376279 -7.491717 1.503731 2.075547 -0.999998 0.0 0.0 -8.489021 -4.449603 -7.520891 19.9097 0.003201 -0.017355 -78.849518 -2.184918 -6.726069 -7.449079 0.852199 1.6605 -1.000002 -0.0 -0.0 
0.0 0.0 0.0 0.0 -0.0 0.0 0.721935 99.563866 -2.3058 89.881142 0.957241 89.947113 -0.661597 0.508762 -0.298462 -11.321772 -0.406716 -0.295249 16.30916 0.39499 -2.60494 19.565718 -2.538008 2.619009 -2.482641 -0.672392 -0.107644 -32.380585 1.37609 -1.892283 6e-06 0.0 0.0 0.01605 0.018311 0.052027 0.049254 0.042979 0.051486 0.04189 -0.009341 0.060835 -135.73439 -72.141914 155.577103 35.139278 -39.040276 19.846579 37.080986 0.300641 0.027563 -0.198657 -6.262913 4.983034 17.636637 -26.322725 52.411182 -19.46666 -14.3956 29.410389 -0.0 -8.774822 -4e-06 16.128794 -18.08293 6.082698 -0.609777 -1.795653 -3.88933 -4.807089 -11.046811 -2.937852 6e-06 -20.976019 -1e-06 -5.019972 -25.03356 -4.031882 7e-06 -1e-06 0.0 -10.634537 -5.686971 -3.565588 10.573278 -17.922951 -3.113902 3e-06 -13.821211 1e-06 -0.501778 -31.181505 -4.027012 -11.505068 -59.909435 7.24351 -13.982715 -7.150197 -2.875043 13.772732 -8.401493 -3.21824 0.347735 -34.211555 0.771655 -0.963031 -17.73337 2.621021 1e-06 1e-06 0.0 -17.346422 -20.095217 -4.201782 21.757561 -1.638375 3.866428 0.0 -6.338823 -0.0 -1.697588 -22.591751 -6.194009 0.0 -4e-06 -2e-06 49.924377 -78.355171 149.397232 37.91629 -51.315338 7.994224 35.94315 -0.083811 0.031446 1.570892 -3.742377 12.822494 22.182121 -20.375893 49.933315 -16.701811 -16.74353 28.476528 -3e-06 -12.690601 0.0 16.142597 -17.929613 2.550995 -0.10592 -1.513856 -4.27588 -5.039041 -5.612872 -2.953558 4e-06 -11.020525 -2e-06 -6.111299 -15.895332 -3.840472 -0.0 0.0 2e-06 -10.283373 -5.680289 -4.341841 11.028295 -11.302404 -2.372632 -1.384269 -14.23858 -6.32012 -0.625439 -26.924187 -3.827599 -4.499615 -50.009216 -3.84358 -13.708528 -7.363475 -3.720939 18.141151 -14.05274 -3.242673 7e-06 -18.78727 -1e-06 -0.42971 -8.456044 2.555505 1e-06 -2e-06 -2e-06 -15.923539 -20.094482 -5.473583 30.419218 -7.190827 1.735927 1e-06 -8.162924 -3e-06 -1.861901 -22.861469 -6.167941 -0.0 -3e-06 -0.0 170.729919 -4.734431 -10.790422 20.405775 0.045522 0.108301 -78.722359 2.905853 -3.478889 -7.564112 1.52533 2.077327 -0.999999 0.0 0.0 -8.371686 -4.41725 -7.475579 19.741392 -5.6e-05 -0.003722 -78.776237 -2.204261 -6.700752 -7.490024 0.842518 1.661559 -1.000003 0.0 -0.0 
0.0 0.0 0.0 0.0 -0.0 0.0 0.686124 99.566734 -2.305116 89.906242 0.980779 89.896484 -0.678229 0.48197 -0.3214 -11.335257 -0.39757 -0.266563 16.365828 0.387814 -2.611349 19.552275 -2.595711 2.622449 -2.498595 -0.651352 -0.078641 -32.273605 1.359991 -1.85401 6e-06 -0.0 -0.0 0.013815 0.020912 0.068011 0.042608 0.047623 0.070591 0.0369 -0.008988 0.073298 -135.766876 -72.105164 155.661591 35.17662 -39.065414 19.860207 37.124725 0.263878 0.00528 -0.215431 -6.309218 5.044843 17.636627 -26.322733 52.41119 -19.466658 -14.395598 29.410389 -0.0 -8.774822 -4e-06 16.123865 -18.058592 6.083389 -0.609777 -1.795655 -3.889326 -4.807088 -11.046809 -2.93785 5e-06 -20.976015 -1e-06 -5.019974 -25.03356 -4.031876 6e-06 -0.0 1e-06 -10.634535 -5.686971 -3.565586 10.573272 -17.922951 -3.113902 2e-06 -13.821211 0.0 -0.501779 -31.181507 -4.027015 -11.529498 -59.838707 7.282955 -13.982714 -7.150197 -2.875044 13.772729 -8.401491 -3.218243 0.347732 -34.211552 0.771656 -0.963029 -17.73337 2.621019 -0.0 3e-06 1e-06 -17.346416 -20.095217 -4.201784 21.757557 -1.638375 3.866431 1e-06 -6.338824 -0.0 -1.697589 -22.591749 -6.194007 -0.0 -4e-06 -1e-06 49.942497 -78.334396 149.4319 37.913071 -51.371479 7.867263 35.910877 -0.100052 0.017147 1.589186 -3.791916 13.074252 22.182119 -20.375896 49.933327 -16.701813 -16.74353 28.476532 -2e-06 -12.690602 -2e-06 16.120987 -17.891443 2.572991 -0.105921 -1.513858 -4.275879 -5.039041 -5.612872 -2.953556 4e-06 -11.020525 -2e-06 -6.1113 -15.895334 -3.840473 -0.0 -0.0 1e-06 -10.283374 -5.68029 -4.341842 11.028296 -11.302406 -2.372633 -1.38427 -14.238583 -6.320119 -0.625438 -26.924194 -3.827601 -4.530295 -50.025776 -3.803423 -13.708527 -7.363478 -3.720941 18.14115 -14.052739 -3.242674 5e-06 -18.78727 -2e-06 -0.429712 -8.456043 2.555506 1e-06 -3e-06 -2e-06 -15.923536 -20.094486 -5.473587 30.419218 -7.190826 1.735924 -1e-06 -8.162925 -3e-06 -1.861904 -22.861469 -6.167945 1e-06 -4e-06 -0.0 170.800827 -4.718808 -10.758354 20.329573 0.045869 0.125615 -78.693085 2.886735 -3.526861 -7.534177 1.531844 2.080057 -0.999999 0.0 0.0 -8.364669 -4.414806 -7.421113 19.761024 0.004872 -0.003755 -78.784843 -2.247567 -6.679596 -7.462442 0.838801 1.661986 -1.000002 -0.0 -0.0 
0.0 0.0 0.0 0.0 -0.0 0.0 0.656999 99.567406 -2.309908 89.915436 1.003765 89.865601 -0.691303 0.464187 -0.329848 -11.349459 -0.389021 -0.269113 16.428165 0.380795 -2.593712 19.55547 -2.656224 2.621998 -2.526615 -0.634456 -0.037228 -32.207592 1.351078 -1.826431 6e-06 -0.0 0.0 0.011149 0.021188 0.070728 0.027777 0.049362 0.075152 0.023011 -0.010281 0.073525 -135.809509 -72.067673 155.739456 35.234692 -39.098064 19.987656 37.199299 0.267633 0.013362 -0.223814 -6.35773 5.164598 17.636625 -26.322725 52.411186 -19.46665 -14.395594 29.410389 1e-06 -8.774821 -3e-06 16.123293 -18.035599 6.073325 -0.609777 -1.795653 -3.889327 -4.807091 -11.046809 -2.937847 4e-06 -20.976013 -0.0 -5.019974 -25.033556 -4.03188 5e-06 1e-06 -0.0 -10.634533 -5.686971 -3.565588 10.573271 -17.922947 -3.113899 1e-06 -13.821208 1e-06 -0.501783 -31.181501 -4.027012 -11.533947 -59.774025 7.269179 -13.982712 -7.150196 -2.87504 13.772727 -8.401489 -3.218243 0.34773 -34.211544 0.771656 -0.963032 -17.733366 2.621021 0.0 3e-06 0.0 -17.346418 -20.095217 -4.201779 21.757555 -1.638373 3.866428 0.0 -6.338822 -0.0 -1.697594 -22.591743 -6.194004 2e-06 -2e-06 -4e-06 49.923473 -78.309425 149.490509 37.864689 -51.411297 7.892607 35.927067 -0.07926 0.021727 1.555138 -3.877003 13.322716 22.182114 -20.375898 49.933327 -16.701811 -16.74353 28.476532 -5e-06 -12.690601 2e-06 16.108768 -17.845938 2.599904 -0.105919 -1.513856 -4.275882 -5.03904 -5.612872 -2.953557 4e-06 -11.020524 -2e-06 -6.111298 -15.89533 -3.840472 -1e-06 1e-06 1e-06 -10.283369 -5.680288 -4.341838 11.028294 -11.302404 -2.372635 -1.384268 -14.238579 -6.32012 -0.625436 -26.924189 -3.827599 -4.558944 -50.009373 -3.758755 -13.708524 -7.363474 -3.72094 18.141148 -14.052737 -3.242674 6e-06 -18.78727 -1e-06 -0.42971 -8.456044 2.555506 0.0 -1e-06 -0.0 -15.923532 -20.094482 -5.473588 30.41921 -7.190825 1.735924 0.0 -8.162922 -3e-06 -1.861904 -22.861469 -6.167938 -0.0 -3e-06 -2e-06 170.845139 -4.722353 -10.751352 20.29303 0.042143 0.13253 -78.675949 2.877295 -3.54329 -7.492765 1.525653 2.079008 -0.999998 0.0 0.0 -8.355204 -4.397235 -7.358545 19.773605 0.009213 -0.015549 -78.786858 -2.312421 -6.683633 -7.427086 0.834926 1.661254 -1.000002 -0.0 0.0 
